<svg xmlns="http://www.w3.org/2000/svg" viewBox="0 0 65.87 105.74"><defs><style>.cls-1{fill:#b34b25;}.cls-2{fill:#fcbc26;}.cls-3{fill:#e8e0d5;}.cls-4{fill:#ef9218;}.cls-5{fill:#dc2c15;}.cls-6{fill:#211c24;}.cls-7{fill:#ffa726;}.cls-8{fill:#173c61;}.cls-9{fill:#1a4773;}.cls-10{fill:#c73518;}.cls-11{fill:#f5c9bf;}</style></defs><g id="Layer_2" data-name="Layer 2"><g id="Layer_1-2" data-name="Layer 1"><path class="cls-1" d="M28.17,34.1c-.67-.72-2.93-.57-4.22-.11a4.16,4.16,0,0,0-2.47,2.12,22.29,22.29,0,0,0-1.68,5.81c-.34,1.41-2.54,9.58-2.52,9.64-2,1.66-8.35,8.52-8.38,8.55-1,.71-3.73,2-3.73,2A30.48,30.48,0,0,0,3,65.81a1.17,1.17,0,0,0-.13.45.43.43,0,0,0,.23.4c.22.08.43-.09.59-.25.05.59-.59,2.41.45,1.4a9.61,9.61,0,0,0,1.11-2.22,2.76,2.76,0,0,1,2.52-1.27c0,.12-.07.23-.1.34a2,2,0,0,1,1.12.24l.19.11.12-.11a12.8,12.8,0,0,0,1.21-1.67L22,54.54c.26-.32,3.52-11.14,4.19-12.4.18-.29.83.47,1,0a7.37,7.37,0,0,0,.44-1.7,7.21,7.21,0,0,0,0-2.12C27.62,37.93,29.06,35.07,28.17,34.1Z"/><path class="cls-2" d="M21.64,41a14.74,14.74,0,0,1-1.49-.74c-.12.55-.23,1.09-.35,1.63-.05.19-.13.51-.23.92q2.68,1.41,5.4,2.81c.3-.92.58-1.74.81-2.37C24.44,42.48,23.06,41.72,21.64,41Z"/><path class="cls-2" d="M9,60c.74.84,1.49,1.68,2.25,2.51l.89-.66c-.79-.89-1.57-1.8-2.31-2.73Z"/><path class="cls-3" d="M9.82,59.13c.74.93,1.52,1.84,2.31,2.73L13.28,61c-.79-1-1.57-2-2.37-3Z"/><path class="cls-4" d="M24.88,28.16s.78,1.4,3.2.52c1-.37-.86-1.64-.9-1.66S24.88,28.16,24.88,28.16Z"/><path class="cls-5" d="M27.12,14.87a31.41,31.41,0,0,0,9.16-4.61c6.78-5.18,6-8.45,7.89-8.07,2.21.45-2.73,20.16-2.73,20.16L29.59,23.56Z"/><path class="cls-6" d="M33.36,17.33h0c-3.14-.57-6.27-2.9-8.35-4.76A20.68,20.68,0,0,1,20.4,7.22c-.58-1.46-.32-2.75.71-3.43a2,2,0,0,1,1.53-.3,2,2,0,0,1,1.3.86,1.69,1.69,0,0,1-.46,2.33,1.37,1.37,0,0,1-1,.2,1.4,1.4,0,0,1-.88-.58,1.14,1.14,0,0,1,.32-1.59,1,1,0,0,1,.72-.15,1,1,0,0,1,.61.41.82.82,0,0,1,.12.61.8.8,0,0,1-.35.51.2.2,0,0,1-.22-.34.39.39,0,0,0,.11-.55A.52.52,0,0,0,22.52,5a.53.53,0,0,0-.41.08.74.74,0,0,0-.21,1,1,1,0,0,0,1.35.27,1.27,1.27,0,0,0,.35-1.76,1.6,1.6,0,0,0-1-.69,1.62,1.62,0,0,0-1.23.24c-.85.57-1.06,1.67-.55,2.94a20.77,20.77,0,0,0,4.47,5.2c2.88,2.57,5.78,4.23,8.15,4.65a.21.21,0,0,1,.16.24A.2.2,0,0,1,33.36,17.33Z"/><path class="cls-3" d="M28.76,22.13c-.07,0,1.48-8.5,4.54-12.36S36.39,2,37.87.62c1.1-1,3.5-1.6,2.31,5.48s.92,10.64-1.59,16C37.11,25.33,28.76,22.13,28.76,22.13Z"/><path class="cls-7" d="M27,25.06c-.08,0-2.46,1.12-2.46,3.34,0,0,1.94-.41,2.84-.48S27.07,25,27,25.06Z"/><path class="cls-8" d="M38.38,19.22c5.9.47,10.72,4.32,13.2,21.55l-13.26-.3L27.49,24.4S27,18.32,38.38,19.22Z"/><path class="cls-2" d="M36.62,21.18c5.9.47,9.42,4.73,11.9,22l-12-.69-7.91-14S25.26,20.28,36.62,21.18Z"/><path class="cls-8" d="M31.57,22.43s0,.05,0,.07A20.1,20.1,0,0,0,31,25.68a14,14,0,0,0,.36,4.57A24.34,24.34,0,0,0,33,34.39c1,2.23,2.13,4.69,4.34,6a10.49,10.49,0,0,0,4.32,1.23,20.28,20.28,0,0,0,2.7,0c-2.33-15.28-4.42-18.76-10-19.2A17.56,17.56,0,0,0,31.57,22.43Z"/><path class="cls-1" d="M42.29,56.15h0a98.44,98.44,0,0,1,1.48-21,1.72,1.72,0,0,0-.35-1.57A3.53,3.53,0,0,0,41,32.85c-4.56-.1-9,.12-14.68.53a3.77,3.77,0,0,0-1.52.41,2,2,0,0,0-.91,2.5,193.18,193.18,0,0,1,4.36,21.32C28.29,57.63,40.66,56.74,42.29,56.15Z"/><path class="cls-3" d="M25.82,44.41c.85,3.91,1.62,8,2.2,11.87a30.07,30.07,0,0,0,4.66-1.06,29.68,29.68,0,0,0,9.53-4.83c0-2,.18-4,.37-6Z"/><path class="cls-2" d="M42.38,46.86c0-.83.12-1.65.2-2.45H25.82c.18.81.35,1.63.52,2.45Z"/><path class="cls-1" d="M43.43,33.52A3.53,3.53,0,0,0,41,32.85c-4.56-.1-9,.12-14.68.53a3.77,3.77,0,0,0-1.52.41,2,2,0,0,0-.91,2.5c.58,2.16,1.14,4.46,1.68,6.84A9.3,9.3,0,0,1,26.59,43c1.25,0,2.45-.11,3.7-.22,4.21-.34,8.37-.73,12.53-.77.28-2.41.62-4.74,1-7A1.72,1.72,0,0,0,43.43,33.52Z"/><path class="cls-1" d="M65.65,63.32l-.4-.23L64,62.35l-2.05-1.2L61.7,61c-.1-.11-.1-.19,0-.25s.64-.19.83-.19a4.23,4.23,0,0,1,1,.24,1,1,0,0,0,.67,0,1.27,1.27,0,0,0,.61-.5.19.19,0,0,0-.13-.28c-2.79-.49-3.51-1.27-5.86-1.3-.61,0-1-.89-1.59-1.33h0c-2-2.12-4.63-4.85-5.8-5.81,0-.06-2.19-8.23-2.52-9.64a22.7,22.7,0,0,0-1.69-5.81A4.13,4.13,0,0,0,44.72,34c-1.29-.46-3.54-.61-4.21.11-.89,1,.54,3.83.52,4.21a7.63,7.63,0,0,0,0,2.12,7.39,7.39,0,0,0,.43,1.7c.19.48.84-.28,1,0,.67,1.26,3.93,12.08,4.19,12.4l9,6.62c.16.23,1.43,1.67,1.75,2a7.8,7.8,0,0,0,.57.58l.12.12a18,18,0,0,0,2.31,1.85c.41.28.83.56,1.26.81.18.11.52.37.76.33s.47-.07.29-.27a14.48,14.48,0,0,0-1.71-1.4c-.06,0-.32-.23-.07-.25,0,0,.17.11.2.13.45.3.88.62,1.31,1a4.23,4.23,0,0,0,.87.56c.22.07.41.08.54-.06s0-.38-.14-.57a4.43,4.43,0,0,0-.55-.5,18.93,18.93,0,0,0-1.92-1.41,1,1,0,0,1-.16-.26.22.22,0,0,1,.17-.27c.1,0,2.4,1.8,2.47,1.85l.19.17c.33.28.79.61.93,0s-.28-.73-.62-1l-.12-.1c-.45-.34-.89-.69-1.33-1.06-.11-.08-.76-.51-.73-.68s.36-.1.48,0c.78.38,1.37.7,1.82.94a10.22,10.22,0,0,0,.92.45c.33.12.5.07.63-.19A.46.46,0,0,0,65.65,63.32Z"/><path class="cls-2" d="M48.88,41.92l-.18-.79c-1.89.87-3.76,1.77-5.58,2.79.16.45.72,2.15.9,2.7a55.37,55.37,0,0,1,5.5-2.21C49.4,44,48.93,42.12,48.88,41.92Z"/><path class="cls-2" d="M57.13,57.29l-.81-.86c-1,1-2,2-2.89,3.13l.89.66C55.22,59.21,56.17,58.24,57.13,57.29Z"/><path class="cls-3" d="M57.2,57.37l-.07-.08c-1,1-1.91,1.92-2.81,2.93l1.19.88c.85-.94,1.69-1.9,2.53-2.85A7,7,0,0,0,57.2,57.37Z"/><path class="cls-4" d="M43.47,34.11c0,3.84-4.19,7-9.35,7s-9.36-3.11-9.36-7c0-.1,0-.21,0-.32a3.29,3.29,0,0,1,1.07-.35c.14,0,.29,0,.45-.06,5.65-.41,10.12-.63,14.68-.53a6.36,6.36,0,0,1,1.47.16,2,2,0,0,1,1,.51A3.9,3.9,0,0,1,43.47,34.11Z"/><path class="cls-2" d="M42.44,33c-.31,3.6-3.92,6.43-8.32,6.43-4.23,0-7.73-2.61-8.28-6,.14,0,.29,0,.45-.06,5.65-.41,10.12-.63,14.68-.53A6.36,6.36,0,0,1,42.44,33Z"/><path class="cls-1" d="M37,33.6c0-.72-1.07-1.31-1.08-2A4.32,4.32,0,0,0,34,28c5.39.77,4.47-5.47.73-6.14-4.14-.75-6.16.51-7.09,1.93a5.63,5.63,0,0,0-.72,3.75c.22,1.33,2.46,3.15,2.6,3.29a8.94,8.94,0,0,1,1.86,3.54S34.78,35.61,37,33.6Z"/><path class="cls-9" d="M38.17,40.6H37c0-.63-.05-1.25-.11-1.87A30.1,30.1,0,0,0,36,33.38a30.53,30.53,0,0,0-2-5.28L34,28h0a6.37,6.37,0,0,0,1.29,0c.31.69.6,1.4.87,2.11.17.46.33.93.49,1.4A31.78,31.78,0,0,1,38.17,40.6Z"/><path class="cls-7" d="M39.32,40.6H38.17a31.78,31.78,0,0,0-1.52-9c-.16-.47-.32-.94-.49-1.4-.27-.71-.56-1.42-.87-2.11a3.28,3.28,0,0,0,1.12-.29A33,33,0,0,1,39.32,40.6Z"/><path class="cls-9" d="M40.47,40.6H39.32a33,33,0,0,0-2.91-12.85,2.33,2.33,0,0,0,.92-.76A34.33,34.33,0,0,1,40.47,40.6Z"/><path class="cls-9" d="M30.91,33.11c0,.09-.05.18-.07.27a31,31,0,0,0-.94,5.35c0,.62-.08,1.24-.1,1.87H28.65a32.15,32.15,0,0,1,1.5-9A7.85,7.85,0,0,1,30.91,33.11Z"/><path class="cls-7" d="M30.15,31.65a32.15,32.15,0,0,0-1.5,9H27.5a33.29,33.29,0,0,1,1.78-10l.22.19A6.94,6.94,0,0,1,30.15,31.65Z"/><path class="cls-9" d="M29.28,30.63a33.29,33.29,0,0,0-1.78,10H26.36a33.88,33.88,0,0,1,2-10.84C28.72,30.13,29.07,30.44,29.28,30.63Z"/><path class="cls-1" d="M32,76.92h-6.9A9.07,9.07,0,0,1,25,79.28c-.62,4.7-1.2,17.1-3.64,19.92-.48.55-1,1.15-1.49,1.74l-.06,0a12.11,12.11,0,0,1-2,1.1,6.54,6.54,0,0,1-1.36.44c-.92.17-1.84.29-2.74.54a2.65,2.65,0,0,0-1.06.49,1,1,0,0,0,0,1.33c1.18,1.64,7.12.39,7.75.48,1,.13,1.14-.07,4.66.08,1.62.08,1.3-2.26,1.21-4.84-.16-4.75,5.25-13,5.8-16.38a32.05,32.05,0,0,0-.11-7C32,77.13,32,77,32,76.92Z"/><path class="cls-1" d="M46.56,96.05c-.64-4.85-.06-11.51-.75-14a31.9,31.9,0,0,0-3-6.3c-1-1.93-.87-3.28-1-6.3l-7.73,3.94c.43.87.34,2.39,1.57,3.9a8.06,8.06,0,0,1,1.65,3.21c1.31,4.25,5.25,14.13,4.89,18.33,0,.11-.34,2-3.65,3.29a8.1,8.1,0,0,1-1.37.44c-.91.17-1.84.29-2.73.54a2.65,2.65,0,0,0-1.06.49,1,1,0,0,0,0,1.33c1.17,1.64,7.12.39,7.75.48,1,.13,1.14-.07,4.65.08,1.63.08,1.31-2.26,1.22-4.84C47,100.08,46.69,97.11,46.56,96.05Z"/><path class="cls-3" d="M45.47,77.91l-3.46,0h-.76l-2.76,0h-.76l-2.65,0h-.76l-2.95,0h-.76l-3.09,0h-.77l-2.22,0,3.69-20.13L30,57.38l.79-.1,1.44-.19L33,57l9.28-1.2C43.36,61.76,45.47,77.91,45.47,77.91Z"/><polygon class="cls-9" points="30.99 55.93 30.77 57.28 27.52 77.77 26.75 77.76 29.99 57.38 30.24 55.81 30.99 55.93"/><polygon class="cls-9" points="33.03 56.45 32.99 56.99 31.38 77.8 30.61 77.79 32.22 57.09 32.27 56.4 33.03 56.45"/><polygon class="cls-9" points="35.48 56.97 35.08 77.83 34.32 77.82 34.72 56.95 35.48 56.97"/><polygon class="cls-9" points="38.49 77.86 37.73 77.85 37.5 57.63 38.26 57.62 38.49 77.86"/><polygon class="cls-9" points="42.01 77.88 41.25 77.88 41.02 57.63 41.78 57.62 42.01 77.88"/><path class="cls-8" d="M45.47,77.91S28.65,73.55,28.3,57.6l1.08-.14L32,57.13l3.5-.46,6.8-.88c.35,1.88.79,4.78,1.24,7.86.2,1.38.4,2.79.59,4.16.23,1.67.45,3.28.65,4.7C45.17,75.65,45.47,77.91,45.47,77.91Z"/><path class="cls-3" d="M44.75,72.51c-5.32-1.56-13-5.46-15.37-15.05L32,57.13l3.5-.46,6.8-.88c.35,1.88.79,4.78,1.24,7.86.2,1.38.4,2.79.59,4.16C44.33,69.48,44.55,71.09,44.75,72.51Z"/><path class="cls-8" d="M44.1,67.81A19.71,19.71,0,0,1,32,57.13l3.5-.46,6.8-.88c.35,1.88.79,4.78,1.24,7.86C43.71,65,43.91,66.44,44.1,67.81Z"/><path class="cls-3" d="M43.51,63.65a19.08,19.08,0,0,1-8-7L38,56.35l4.32-.56c.18,1,.39,2.24.61,3.65S43.29,62.17,43.51,63.65Z"/><path class="cls-8" d="M42.88,59.44A18.88,18.88,0,0,1,38,56.35l4.32-.56C42.45,56.77,42.66,58,42.88,59.44Z"/><rect class="cls-7" x="37.03" y="40.6" width="3.44" height="1"/><rect class="cls-7" x="26.36" y="40.6" width="3.44" height="1"/><path class="cls-5" d="M36.29,37.08a2.18,2.18,0,1,0-2.17,2.17A2.17,2.17,0,0,0,36.29,37.08Z"/><path class="cls-10" d="M35,35.1a2.8,2.8,0,0,1-1.39,3.37,1.75,1.75,0,0,1-1.13,0A2.17,2.17,0,1,0,35,35.1Z"/><path class="cls-11" d="M33.61,36.53a.69.69,0,0,1-.85.42.79.79,0,0,1,.67-1.36A.69.69,0,0,1,33.61,36.53Z"/><path class="cls-2" d="M28,56.28c.07.44.13.89.2,1.33.07,0,12.44-.87,14.07-1.46h0c-.11-1.94-.14-3.86-.09-5.75a29.68,29.68,0,0,1-9.53,4.83A30.07,30.07,0,0,1,28,56.28Z"/><rect class="cls-2" x="5.53" y="38.18" width="1.61" height="58.38"/><rect class="cls-2" x="-0.39" y="38.29" width="10.67" height="2.38" transform="translate(-23.16 11.32) rotate(-37.8)"/><path class="cls-2" d="M6.33,95.25a3.91,3.91,0,0,0-2.56,6.83,5.66,5.66,0,0,1-.14-1.26c0-2.16,1.21-3.91,2.7-3.91S9,98.66,9,100.82a5.12,5.12,0,0,1-.15,1.26,3.91,3.91,0,0,0-2.56-6.83Z"/><path class="cls-1" d="M7.63,64.66a2.26,2.26,0,0,1-.53.82,3.31,3.31,0,0,0-.64.76c-.14.29.14.91.14.91,1-.83,1.75-1.56,2.34-2.14l-.19-.11A2,2,0,0,0,7.63,64.66Z"/><path class="cls-3" d="M29.28,25.12a2.92,2.92,0,0,0,.43.28,2.29,2.29,0,0,0,2.54-.09c.18-.12.32-.23.42-.31a4.45,4.45,0,0,0-.43-.29,2.28,2.28,0,0,0-2.55.1A2.86,2.86,0,0,0,29.28,25.12Z"/><path class="cls-6" d="M31.42,24.9a.66.66,0,1,0-.5.77A.65.65,0,0,0,31.42,24.9Z"/></g></g></svg>