<svg xmlns="http://www.w3.org/2000/svg" viewBox="0 0 45.55 81.79"><defs><style>.cls-1{fill:#b34b25;}.cls-2{fill:#fcbc26;}.cls-3{fill:#211c24;}.cls-4{fill:#1797ca;}.cls-5{fill:#e8e0d5;}.cls-6{fill:#ef9218;}.cls-7{fill:#60d4e0;}.cls-8{fill:#2ba9b4;}</style></defs><g id="Layer_2" data-name="Layer 2"><g id="Layer_1-2" data-name="Layer 1"><path class="cls-1" d="M30.27,21.61a21.3,21.3,0,0,0-1.6-5.48,3.9,3.9,0,0,0-2.32-2c-1.22-.44-3.35-.58-4,.1-.85.92.51,3.61.49,4a6.74,6.74,0,0,0,0,2,6.63,6.63,0,0,0,.41,1.61c.17.45.78-.26.95,0,.63,1.19,3.7,11.39,3.95,11.7l.13.09a21.52,21.52,0,0,1,4.35-3C32.43,29.82,30.57,22.87,30.27,21.61Z"/><path class="cls-2" d="M28.53,20.77a14.1,14.1,0,0,0,1.41-.69q.15.77.33,1.53c0,.18.12.48.22.87l-5.1,2.65c-.29-.87-.55-1.64-.76-2.24Q26.52,21.77,28.53,20.77Z"/><path class="cls-3" d="M23.48,5.71C23.56,5.73,39,10.15,38,16.29c0,0-1.11-3.11-3.41-4.36-4.22-2.32-11-3.47-11.5-3.51C22.28,8.34,23.41,5.69,23.48,5.71Z"/><path class="cls-4" d="M12.74.21C7.07,1,2,7.21.3,20.53l12.5-.28L23,5.1S23.4-1.22,12.74.21Z"/><path class="cls-5" d="M14.4,2.06C8.84,2.5,5.52,6.51,3.19,22.76l11.27-.66L19.29,7.93S25.12,1.21,14.4,2.06Z"/><path class="cls-4" d="M19.17,3.23s0,0,0,.07a18.07,18.07,0,0,1,.5,3,12.77,12.77,0,0,1-.34,4.31,24,24,0,0,1-1.56,3.91c-1,2.1-2,4.41-4.09,5.64a9.84,9.84,0,0,1-4.08,1.16,21.49,21.49,0,0,1-2.54.05C9.26,7,11.23,3.68,16.54,3.26A18,18,0,0,1,19.17,3.23Z"/><path class="cls-1" d="M9.06,35h0a93.43,93.43,0,0,0-1.4-19.86A1.63,1.63,0,0,1,8,13.69a3.34,3.34,0,0,1,2.32-.63c4.31-.09,8.52.11,13.84.5a3.49,3.49,0,0,1,1.43.39,1.88,1.88,0,0,1,.86,2.36,179,179,0,0,0-4.1,20.1C22.26,36.43,10.6,35.58,9.06,35Z"/><path class="cls-5" d="M24.59,24c-.81,3.69-1.53,7.53-2.08,11.19a28.61,28.61,0,0,1-4.39-1,28.37,28.37,0,0,1-9-4.56c0-1.92-.17-3.81-.34-5.64Z"/><path class="cls-2" d="M9,26.27c-.06-.78-.12-1.55-.19-2.31h15.8c-.17.76-.33,1.53-.49,2.31Z"/><path class="cls-1" d="M8,13.69a3.34,3.34,0,0,1,2.32-.63c4.31-.09,8.52.11,13.84.5a3.49,3.49,0,0,1,1.43.39,1.88,1.88,0,0,1,.86,2.36c-.54,2-1.07,4.21-1.57,6.45a6.88,6.88,0,0,0-1-.09c-1.18-.05-2.31-.1-3.48-.21-4-.32-7.9-.69-11.82-.73-.27-2.27-.59-4.46-.91-6.56A1.63,1.63,0,0,1,8,13.69Z"/><path class="cls-1" d="M10.74,14.24c-.63-.68-2.76-.54-4-.1a3.9,3.9,0,0,0-2.32,2,21.28,21.28,0,0,0-1.59,5.48C2.56,22.83.78,29.43.51,30.54A8.85,8.85,0,0,1,3.83,32.6a3.08,3.08,0,0,0,.85.54,1.48,1.48,0,0,1,.29.37c.26-.37,3.31-10.51,4-11.69.16-.27.77.44.95,0a7.12,7.12,0,0,0,.41-1.61,7,7,0,0,0,0-2C10.23,17.85,11.58,15.16,10.74,14.24Z"/><path class="cls-2" d="M2.85,21.61c.06-.25.11-.49.16-.74,1.78.82,3.55,1.67,5.26,2.63-.15.43-.67,2-.84,2.54C5.74,25.15,4,24.68,2.24,24Z"/><path class="cls-6" d="M8,14.25c0,3.62,4,6.55,8.82,6.55s8.81-2.93,8.81-6.55c0-.1,0-.2,0-.3a2.94,2.94,0,0,0-1-.33c-.14,0-.28,0-.43-.06-5.32-.39-9.53-.59-13.84-.5a6.36,6.36,0,0,0-1.39.15,2,2,0,0,0-.93.48A5.4,5.4,0,0,0,8,14.25Z"/><path class="cls-2" d="M8.91,13.21c.3,3.39,3.7,6.07,7.86,6.07,4,0,7.28-2.47,7.8-5.66-.14,0-.28,0-.43-.06-5.32-.39-9.53-.59-13.84-.5A6.36,6.36,0,0,0,8.91,13.21Z"/><path class="cls-7" d="M14,13.77c0-.68,1-1.24,1-1.92a4.09,4.09,0,0,1,1.85-3.37c-5.08.72-4.21-5.16-.69-5.79,3.91-.71,5.8.55,6.93,1.69s.5,3.55.42,3.87C23,10.33,20.3,10,20.17,10.15c-1,1.09-1,2.32-.59,4.33C19.55,14.5,16.14,15.66,14,13.77Z"/><path class="cls-1" d="M18.8,54.62h6.5a8.9,8.9,0,0,0,.07,2.22C26,61.27,26.51,73,28.8,75.61c.46.53.93,1.09,1.41,1.66l.05,0a11.2,11.2,0,0,0,1.89,1,5.82,5.82,0,0,0,1.28.42c.87.16,1.74.28,2.59.51a2.37,2.37,0,0,1,1,.46A.93.93,0,0,1,37,81c-1.1,1.55-6.71.38-7.31.46-.93.12-1.07-.07-4.38.08-1.54.06-1.23-2.14-1.15-4.57.15-4.48-4.94-12.27-5.47-15.45a30.82,30.82,0,0,1,.11-6.58C18.79,54.81,18.8,54.71,18.8,54.62Z"/><path class="cls-1" d="M5,72.65c.59-4.57,0-10.85.7-13.23a29.66,29.66,0,0,1,2.83-5.94c.91-1.82.82-3.09.94-5.94l7.28,3.71c-.39.83-.31,2.26-1.47,3.68a7.62,7.62,0,0,0-1.56,3c-1.23,4-4.95,13.32-4.61,17.28,0,.1.32,1.9,3.44,3.1a7.47,7.47,0,0,0,1.29.42c.86.16,1.74.28,2.58.51a2.41,2.41,0,0,1,1,.46,1,1,0,0,1,0,1.25c-1.11,1.55-6.71.38-7.31.46-.93.12-1.07-.07-4.38.08C4.21,81.58,4.52,79.38,4.6,77,4.62,76.45,4.91,73.65,5,72.65Z"/><path class="cls-5" d="M6.06,55.55l3.26,0H10l2.6,0h.72l2.49,0h.72l2.78,0h.72l2.92,0h.72l2.09,0-3.47-19-1.67-.22-.74-.1-1.37-.17-.72-.09L9.07,34.69C8.05,40.32,6.06,55.55,6.06,55.55Z"/><path class="cls-2" d="M22.25,36.4a18.22,18.22,0,0,1-2.93,9.74,18.09,18.09,0,0,1-1.19,1.64A20.42,20.42,0,0,1,16,50.05c-.36.33-.73.64-1.1.93s-1,.76-1.5,1.1-.71.47-1.07.69-1,.58-1.46.83-.71.36-1.05.52c-.55.26-1.07.49-1.54.67s-.73.29-1,.39c-.73.26-1.16.37-1.16.37s0-.26.1-.73c.11-.87.32-2.44.58-4.36.18-1.35.39-2.87.61-4.43.18-1.3.37-2.63.56-3.93.42-2.9.84-5.63,1.16-7.41l.94.12,1,.13,1.4.18,1,.12,1.33.17.83.11.13,0,1.32.17,1,.12.89.12.93.12,1,.12.55.08.36,0Z"/><path class="cls-8" d="M21.59,36.31a18.55,18.55,0,0,1-2,7.7h0a17.29,17.29,0,0,1-.94,1.63c-.1.16-.21.32-.32.47-.28.41-.57.79-.87,1.17s-.88,1-1.35,1.49c-.27.27-.54.53-.82.78l-.29.26c-.27.23-.54.46-.81.67l-.7.54-.8.56-.28.19-.78.5-.7.4-.77.43-.28.14-.77.38L8.36,54l-.77.32-.27.11-.75.28-.41.14c.11-.87.32-2.44.58-4.36.18-1.35.39-2.87.61-4.43.18-1.3.37-2.63.56-3.93.42-2.9.84-5.63,1.16-7.41l.94.12,1,.13,1.4.18,1,.12,1.33.17.83.11.13,0,1.32.17,1,.12.89.12.93.12,1,.12.55.08Z"/><path class="cls-5" d="M11,34.94,8.36,54l-.77.32-.27.11L10,34.81Z"/><path class="cls-5" d="M13.33,35.24,11,52.67l-.77.43-.28.14,2.47-18.12Z"/><path class="cls-5" d="M15.62,35.54,13.51,51l-.8.56-.28.19,2.23-16.36.83.11Z"/><path class="cls-5" d="M17.9,35.83,16.13,48.77c-.27.27-.54.53-.82.78l-.29.26,1.92-14.1Z"/><path class="cls-5" d="M20.68,36.19,19.62,44h0a17.29,17.29,0,0,1-.94,1.63c-.1.16-.21.32-.32.47l1.37-10Z"/><path class="cls-5" d="M12.94,20.36H14c0-.59.05-1.18.1-1.76a29.1,29.1,0,0,1,2.71-10l0-.08h0a5.08,5.08,0,0,1-1.22,0c-.29.66-.57,1.32-.82,2-.16.44-.32.88-.46,1.33A29.9,29.9,0,0,0,12.94,20.36Z"/><path class="cls-4" d="M11.86,20.36h1.08a29.9,29.9,0,0,1,1.44-8.52c.14-.45.3-.89.46-1.33.25-.67.53-1.33.82-2a3,3,0,0,1-1.06-.27A31.14,31.14,0,0,0,11.86,20.36Z"/><path class="cls-5" d="M10.77,20.36h1.09A31.14,31.14,0,0,1,14.6,8.25a2.1,2.1,0,0,1-.86-.71A32.4,32.4,0,0,0,10.77,20.36Z"/><rect class="cls-2" x="10.77" y="20.36" width="3.25" height="0.95"/><path class="cls-6" d="M22.51,35.15l-.18,1.26c-.07,0-11.73-.83-13.27-1.38h0c.11-1.84.13-3.65.08-5.43a28.37,28.37,0,0,0,9,4.56A28.61,28.61,0,0,0,22.51,35.15Z"/><path class="cls-1" d="M44,22.1c.17-.11.38-.27.34-.49a.4.4,0,0,0-.32-.29,1.08,1.08,0,0,0-.44,0,30.49,30.49,0,0,0-3.82,1.33,25.16,25.16,0,0,1-2.39,3.17s-7.79,4.41-9.72,5.95h-.07c.46,1.72.73,2.89,2.48,2.89,2.59,0,9.52-7.37,9.52-7.37.35-.19,1.39-.11,2-.52l.12-.08c.65-.44,1.48-1,2.43-1.74,0,0-.51-.39-.82-.31a2.67,2.67,0,0,0-.81.44,1.93,1.93,0,0,1-.87.32l-.33,0a2.63,2.63,0,0,1,1.66-2.09,8.55,8.55,0,0,0,2.26-.59C46.32,22,44.51,22.26,44,22.1Z"/><path class="cls-1" d="M20.2,26.6c.2-.06.45-.15.48-.36a.41.41,0,0,0-.21-.38,1.29,1.29,0,0,0-.44-.11,29.11,29.11,0,0,0-4,0,24.22,24.22,0,0,1-3.31,2.38S2.82,29.69.51,30.54c0,0-1.81,5.89,1.41,5.29s12.24-5.57,12.24-5.57a13.38,13.38,0,0,0,2.23,0l.15,0c.75-.22,1.72-.51,2.86-.89,0,0-.37-.52-.68-.55a2.88,2.88,0,0,0-.92.17,2.05,2.05,0,0,1-.92,0,2.46,2.46,0,0,1-.33-.07,2.62,2.62,0,0,1,2.24-1.45,8.38,8.38,0,0,0,2.33.16C22.44,27.27,20.65,26.92,20.2,26.6Z"/><path class="cls-5" d="M21,5.29a2.47,2.47,0,0,0-1.17-.48,2.33,2.33,0,0,0-1.22.25,4.11,4.11,0,0,0-.42.24,2.66,2.66,0,0,0,.37.32,2.47,2.47,0,0,0,1.17.48,2.35,2.35,0,0,0,1.22-.25,4.11,4.11,0,0,0,.42-.24A2.66,2.66,0,0,0,21,5.29Z"/><path class="cls-3" d="M19.32,5.28a.6.6,0,0,1,.76-.4A.6.6,0,1,1,19.75,6,.6.6,0,0,1,19.32,5.28Z"/><path class="cls-5" d="M21.43,20.36H20.34c0-.59,0-1.18-.09-1.76a29.71,29.71,0,0,0-.88-5l-.21-.74a3.62,3.62,0,0,1,.49-2c.12.33.23.66.34,1A29.9,29.9,0,0,1,21.43,20.36Z"/><path class="cls-4" d="M22.51,20.36H21.43A29.9,29.9,0,0,0,20,11.84c-.11-.34-.22-.67-.34-1a3.67,3.67,0,0,1,.52-.69.91.91,0,0,1,.36-.05A31.2,31.2,0,0,1,22.51,20.36Z"/><path class="cls-5" d="M23.59,20.36H22.51a31.2,31.2,0,0,0-2-10.26A6.79,6.79,0,0,0,21.62,10,32.13,32.13,0,0,1,23.59,20.36Z"/><rect class="cls-2" x="20.35" y="20.36" width="3.25" height="0.95"/></g></g></svg>